<svg width="20" height="20" viewBox="0 0 20 20" fill="currentColor" xmlns="http://www.w3.org/2000/svg">
    <path d="M13.0008 7.00016C12.4477 7.00016 12.0009 6.55325 12.0009 6.00008C12.0009 5.44691 12.4477 5 13.0008 5H18.0001C18.5532 5 19 5.44691 19 6.00008V11.0005C19 11.5536 18.5532 12.0005 18.0001 12.0005C17.4471 12.0005 17.0003 11.5536 17.0003 11.0005V8.41589L11.7072 13.7069C11.3166 14.0976 10.6823 14.0976 10.2918 13.7069L7.00156 10.416L2.70837 14.707C2.3178 15.0977 1.6835 15.0977 1.29293 14.707C0.902356 14.3164 0.902356 13.6819 1.29293 13.2913L6.29228 8.29088C6.68285 7.90023 7.31715 7.90023 7.70772 8.29088L11.001 11.5849L15.5848 7.00016H13.0008Z" fill="#3DA55A"/>
</svg>
