<svg width="20" height="20" viewBox="0 0 20 20" fill="none" xmlns="http://www.w3.org/2000/svg">
<path d="M13.0008 12.9998C12.4477 12.9998 12.0009 13.4468 12.0009 13.9999C12.0009 14.5531 12.4477 15 13.0008 15H18.0001C18.5532 15 19 14.5531 19 13.9999V8.99953C19 8.44636 18.5532 7.99945 18.0001 7.99945C17.4471 7.99945 17.0003 8.44636 17.0003 8.99953V11.5841L11.7072 6.29307C11.3166 5.90241 10.6823 5.90241 10.2918 6.29307L7.00156 9.58395L2.70837 5.29299C2.3178 4.90234 1.6835 4.90234 1.29293 5.29299C0.902356 5.68365 0.902356 6.31807 1.29293 6.70873L6.29228 11.7091C6.68285 12.0998 7.31715 12.0998 7.70772 11.7091L11.001 8.41511L15.5848 12.9998H13.0008Z" fill="#E83F3F"/>
</svg>
