<svg width="20" height="20" viewBox="0 0 20 20" fill="none" xmlns="http://www.w3.org/2000/svg">
<rect y="3" width="20" height="14" rx="2" fill="#F2F2F2"/>
<path d="M9.99984 14.09C9.08984 14.09 8.15984 13.73 7.40984 12.96L8.25984 11.92C8.78984 12.52 9.46984 12.81 10.0298 12.81C10.7098 12.81 11.0398 12.5 11.0398 12.06C11.0398 11.54 10.6698 11.35 9.80984 11.05C8.72984 10.68 7.65984 10.19 7.65984 8.84C7.65984 7.7 8.66984 6.82 9.93984 6.81C10.8198 6.81 11.6298 7.13 12.3398 7.71L11.5198 8.77C10.9298 8.29 10.4098 8.07 9.96984 8.07C9.47984 8.07 9.11984 8.33 9.10984 8.78C9.10984 9.22 9.48984 9.4 10.3098 9.72C11.5398 10.2 12.5198 10.52 12.5198 11.89C12.5198 13.45 11.1498 14.09 9.99984 14.09Z" fill="#282828"/>
</svg>
